<svg version="1.1" viewBox="0.0 0.0 1171.0 955.0" fill="none" stroke="none" stroke-linecap="square" stroke-miterlimit="10" xmlns:xlink="http://www.w3.org/1999/xlink" xmlns="http://www.w3.org/2000/svg"><clipPath id="p.0"><path d="m0 0l1171.0 0l0 955.0l-1171.0 0l0 -955.0z" clip-rule="nonzero" /></clipPath><g clip-path="url(#p.0)"><path id="overlay-1Box" fill="#ffffff" fill-opacity="0.0" d="m0.0 0.0l1171.0 0l0 955.0l-1171.0 0z" fill-rule="evenodd" /><path id="overlay0Box" fill="#ffffff" fill-opacity="0.0" d="m451.0 656.0l72.0 0l0 69.0l-72.0 0z" fill-rule="evenodd" /><path id="overlay0Line" opacity="0.0" stroke="#0000ff" stroke-width="3.0" stroke-linejoin="round" stroke-linecap="butt" d="m451.0 656.0l72.0 0l0 69.0l-72.0 0z" fill-rule="evenodd" /><path id="overlay1Box" fill="#ffffff" fill-opacity="0.0" d="m451.0 532.0l72.0 0l0 124.0l-72.0 0z" fill-rule="evenodd" /><path id="overlay1Line" opacity="0.0" stroke="#0000ff" stroke-width="3.0" stroke-linejoin="round" stroke-linecap="butt" d="m451.0 532.0l72.0 0l0 124.0l-72.0 0z" fill-rule="evenodd" /><path id="overlay2Box" fill="#ffffff" fill-opacity="0.0" d="m397.0 441.0l112.0 0l0 91.0l-112.0 0z" fill-rule="evenodd" /><path id="overlay2Line" opacity="0.0" stroke="#0000ff" stroke-width="3.0" stroke-linejoin="round" stroke-linecap="butt" d="m397.0 441.0l112.0 0l0 91.0l-112.0 0z" fill-rule="evenodd" /><path id="overlay3Box" fill="#ffffff" fill-opacity="0.0" d="m294.0 466.0l103.0 0l0 55.0l-103.0 0z" fill-rule="evenodd" /><path id="overlay3Line" opacity="0.0" stroke="#0000ff" stroke-width="3.0" stroke-linejoin="round" stroke-linecap="butt" d="m294.0 466.0l103.0 0l0 55.0l-103.0 0z" fill-rule="evenodd" /><path id="overlay4Box" fill="#ffffff" fill-opacity="0.0" d="m424.0 367.0l66.0 0l0 74.0l-66.0 0z" fill-rule="evenodd" /><path id="overlay4Line" opacity="0.0" stroke="#0000ff" stroke-width="3.0" stroke-linejoin="round" stroke-linecap="butt" d="m424.0 367.0l66.0 0l0 74.0l-66.0 0z" fill-rule="evenodd" /><path id="overlay5Box" fill="#ffffff" fill-opacity="0.0" d="m424.0 268.0l66.0 0l0 99.0l-66.0 0z" fill-rule="evenodd" /><path id="overlay5Line" opacity="0.0" stroke="#0000ff" stroke-width="3.0" stroke-linejoin="round" stroke-linecap="butt" d="m424.0 268.0l66.0 0l0 99.0l-66.0 0z" fill-rule="evenodd" /><path id="overlay6Box" fill="#ffffff" fill-opacity="0.0" d="m402.0 175.0l114.0 0l0 92.0l-114.0 0z" fill-rule="evenodd" /><path id="overlay6Line" opacity="0.0" stroke="#0000ff" stroke-width="3.0" stroke-linejoin="round" stroke-linecap="butt" d="m402.0 175.0l114.0 0l0 92.0l-114.0 0z" fill-rule="evenodd" /><path id="overlay7Box" fill="#ffffff" fill-opacity="0.0" d="m516.0 201.0l223.0 0l0 48.0l-223.0 0z" fill-rule="evenodd" /><path id="overlay7Line" opacity="0.0" stroke="#0000ff" stroke-width="3.0" stroke-linejoin="round" stroke-linecap="butt" d="m516.0 201.0l223.0 0l0 48.0l-223.0 0z" fill-rule="evenodd" /><path id="overlay8Box" fill="#ffffff" fill-opacity="0.0" d="m648.0 141.0l91.0 0l0 59.0l-91.0 0z" fill-rule="evenodd" /><path id="overlay8Line" opacity="0.0" stroke="#0000ff" stroke-width="3.0" stroke-linejoin="round" stroke-linecap="butt" d="m648.0 141.0l91.0 0l0 59.0l-91.0 0z" fill-rule="evenodd" /><path id="overlay9Box" fill="#ffffff" fill-opacity="0.0" d="m739.0 201.0l98.0 0l0 48.0l-98.0 0z" fill-rule="evenodd" /><path id="overlay9Line" opacity="0.0" stroke="#0000ff" stroke-width="3.0" stroke-linejoin="round" stroke-linecap="butt" d="m739.0 201.0l98.0 0l0 48.0l-98.0 0z" fill-rule="evenodd" /><path id="overlay10Box" fill="#ffffff" fill-opacity="0.0" d="m837.0 163.0l128.0 0l0 116.0l-128.0 0z" fill-rule="evenodd" /><path id="overlay10Line" opacity="0.0" stroke="#0000ff" stroke-width="3.0" stroke-linejoin="round" stroke-linecap="butt" d="m837.0 163.0l128.0 0l0 116.0l-128.0 0z" fill-rule="evenodd" /><path id="overlay11Box" fill="#ffffff" fill-opacity="0.0" d="m874.0 103.0l51.0 0l0 60.0l-51.0 0z" fill-rule="evenodd" /><path id="overlay11Line" opacity="0.0" stroke="#0000ff" stroke-width="3.0" stroke-linejoin="round" stroke-linecap="butt" d="m874.0 103.0l51.0 0l0 60.0l-51.0 0z" fill-rule="evenodd" /><path id="overlay12Box" fill="#ffffff" fill-opacity="0.0" d="m874.0 58.0l182.0 0l0 45.0l-182.0 0z" fill-rule="evenodd" /><path id="overlay12Line" opacity="0.0" stroke="#0000ff" stroke-width="3.0" stroke-linejoin="round" stroke-linecap="butt" d="m874.0 58.0l182.0 0l0 45.0l-182.0 0z" fill-rule="evenodd" /><path id="overlay13Box" fill="#ffffff" fill-opacity="0.0" d="m866.0 276.0l70.0 0l0 45.0l-70.0 0z" fill-rule="evenodd" /><path id="overlay13Line" opacity="0.0" stroke="#0000ff" stroke-width="3.0" stroke-linejoin="round" stroke-linecap="butt" d="m866.0 276.0l70.0 0l0 45.0l-70.0 0z" fill-rule="evenodd" /><path id="overlay14Box" fill="#ffffff" fill-opacity="0.0" d="m866.0 436.0l71.0 0l0 41.0l-71.0 0z" fill-rule="evenodd" /><path id="overlay14Line" opacity="0.0" stroke="#0000ff" stroke-width="3.0" stroke-linejoin="round" stroke-linecap="butt" d="m866.0 436.0l71.0 0l0 41.0l-71.0 0z" fill-rule="evenodd" /><path id="overlay15Box" fill="#ffffff" fill-opacity="0.0" d="m836.0 480.0l130.0 0l0 75.0l-130.0 0z" fill-rule="evenodd" /><path id="overlay15Line" opacity="0.0" stroke="#0000ff" stroke-width="3.0" stroke-linejoin="round" stroke-linecap="butt" d="m836.0 480.0l130.0 0l0 75.0l-130.0 0z" fill-rule="evenodd" /><path id="overlay16Box" fill="#ffffff" fill-opacity="0.0" d="m872.0 561.5l59.0 0l0 59.0l-59.0 0z" fill-rule="evenodd" /><path id="overlay16Line" opacity="0.0" stroke="#0000ff" stroke-width="3.0" stroke-linejoin="round" stroke-linecap="butt" d="m872.0 561.5l59.0 0l0 59.0l-59.0 0z" fill-rule="evenodd" /><path id="overlay17Box" fill="#ffffff" fill-opacity="0.0" d="m966.0 491.0l135.0 0l0 60.0l-135.0 0z" fill-rule="evenodd" /><path id="overlay17Line" opacity="0.0" stroke="#0000ff" stroke-width="3.0" stroke-linejoin="round" stroke-linecap="butt" d="m966.0 491.0l135.0 0l0 60.0l-135.0 0z" fill-rule="evenodd" /><path id="overlay18Box" fill="#ffffff" fill-opacity="0.0" d="m490.0 306.0l337.0 0l0 30.0l-337.0 0z" fill-rule="evenodd" /><path id="overlay18Line" opacity="0.0" stroke="#0000ff" stroke-width="3.0" stroke-linejoin="round" stroke-linecap="butt" d="m490.0 306.0l337.0 0l0 30.0l-337.0 0z" fill-rule="evenodd" /><path id="overlay19Box" fill="#ffffff" fill-opacity="0.0" d="m966.0 207.0l126.0 0l0 54.0l-126.0 0z" fill-rule="evenodd" /><path id="overlay19Line" opacity="0.0" stroke="#0000ff" stroke-width="3.0" stroke-linejoin="round" stroke-linecap="butt" d="m966.0 207.0l126.0 0l0 54.0l-126.0 0z" fill-rule="evenodd" /><path id="overlay20Box" fill="#ffffff" fill-opacity="0.0" d="m1091.0 207.0l64.0 0l0 107.0l-64.0 0z" fill-rule="evenodd" /><path id="overlay20Line" opacity="0.0" stroke="#0000ff" stroke-width="3.0" stroke-linejoin="round" stroke-linecap="butt" d="m1091.0 207.0l64.0 0l0 107.0l-64.0 0z" fill-rule="evenodd" /><path id="overlay21Box" fill="#ffffff" fill-opacity="0.0" d="m1091.0 314.0l64.0 0l0 58.0l-64.0 0z" fill-rule="evenodd" /><path id="overlay21Line" opacity="0.0" stroke="#0000ff" stroke-width="3.0" stroke-linejoin="round" stroke-linecap="butt" d="m1091.0 314.0l64.0 0l0 58.0l-64.0 0z" fill-rule="evenodd" /><path id="overlay22Box" fill="#ffffff" fill-opacity="0.0" d="m1091.0 372.0l64.0 0l0 59.0l-64.0 0z" fill-rule="evenodd" /><path id="overlay22Line" opacity="0.0" stroke="#0000ff" stroke-width="3.0" stroke-linejoin="round" stroke-linecap="butt" d="m1091.0 372.0l64.0 0l0 59.0l-64.0 0z" fill-rule="evenodd" /><path id="overlay23Box" fill="#ffffff" fill-opacity="0.0" d="m972.0 374.0l119.0 0l0 57.0l-119.0 0z" fill-rule="evenodd" /><path id="overlay23Line" opacity="0.0" stroke="#0000ff" stroke-width="3.0" stroke-linejoin="round" stroke-linecap="butt" d="m972.0 374.0l119.0 0l0 57.0l-119.0 0z" fill-rule="evenodd" /><path id="overlay24Box" fill="#ffffff" fill-opacity="0.0" d="m773.0 383.0l63.0 0l0 48.0l-63.0 0z" fill-rule="evenodd" /><path id="overlay24Line" opacity="0.0" stroke="#0000ff" stroke-width="3.0" stroke-linejoin="round" stroke-linecap="butt" d="m773.0 383.0l63.0 0l0 48.0l-63.0 0z" fill-rule="evenodd" /><path id="overlay25Box" fill="#ffffff" fill-opacity="0.0" d="m649.0 344.0l125.0 0l0 116.0l-125.0 0z" fill-rule="evenodd" /><path id="overlay25Line" opacity="0.0" stroke="#0000ff" stroke-width="3.0" stroke-linejoin="round" stroke-linecap="butt" d="m649.0 344.0l125.0 0l0 116.0l-125.0 0z" fill-rule="evenodd" /><path id="overlay26Box" fill="#ffffff" fill-opacity="0.0" d="m649.0 343.5l53.0 0l0 53.0l-53.0 0z" fill-rule="evenodd" /><path id="overlay26Line" opacity="0.0" stroke="#0000ff" stroke-width="3.0" stroke-linejoin="round" stroke-linecap="butt" d="m649.0 343.5l53.0 0l0 53.0l-53.0 0z" fill-rule="evenodd" /><path id="overlay27Box" fill="#ffffff" fill-opacity="0.0" d="m1124.0 381.0l38.0 0l0 38.0l-38.0 0z" fill-rule="evenodd" /><path id="overlay27Line" opacity="0.0" stroke="#0000ff" stroke-width="3.0" stroke-linejoin="round" stroke-linecap="butt" d="m1124.0 381.0l38.0 0l0 38.0l-38.0 0z" fill-rule="evenodd" /><path id="overlay28Box" fill="#ffffff" fill-opacity="0.0" d="m827.0 324.0l145.0 0l0 112.0l-145.0 0z" fill-rule="evenodd" /><path id="overlay28Line" opacity="0.0" stroke="#0000ff" stroke-width="3.0" stroke-linejoin="round" stroke-linecap="butt" d="m827.0 324.0l145.0 0l0 112.0l-145.0 0z" fill-rule="evenodd" /><path id="overlay29Box" fill="#ffffff" fill-opacity="0.0" d="m918.0 322.0l54.0 0l0 54.0l-54.0 0z" fill-rule="evenodd" /><path id="overlay29Line" opacity="0.0" stroke="#0000ff" stroke-width="3.0" stroke-linejoin="round" stroke-linecap="butt" d="m918.0 322.0l54.0 0l0 54.0l-54.0 0z" fill-rule="evenodd" /><path id="overlay30Box" fill="#ffffff" fill-opacity="0.0" d="m586.0 397.0l64.0 0l0 63.0l-64.0 0z" fill-rule="evenodd" /><path id="overlay30Line" opacity="0.0" stroke="#0000ff" stroke-width="3.0" stroke-linejoin="round" stroke-linecap="butt" d="m586.0 397.0l64.0 0l0 63.0l-64.0 0z" fill-rule="evenodd" /><path id="overlay31Box" fill="#ffffff" fill-opacity="0.0" d="m586.0 460.0l64.0 0l0 242.0l-64.0 0z" fill-rule="evenodd" /><path id="overlay31Line" opacity="0.0" stroke="#0000ff" stroke-width="3.0" stroke-linejoin="round" stroke-linecap="butt" d="m586.0 460.0l64.0 0l0 242.0l-64.0 0z" fill-rule="evenodd" /><path id="overlay32Box" fill="#ffffff" fill-opacity="0.0" d="m586.0 702.0l128.0 0l0 46.0l-128.0 0z" fill-rule="evenodd" /><path id="overlay32Line" opacity="0.0" stroke="#0000ff" stroke-width="3.0" stroke-linejoin="round" stroke-linecap="butt" d="m586.0 702.0l128.0 0l0 46.0l-128.0 0z" fill-rule="evenodd" /><path id="overlay33Box" fill="#ffffff" fill-opacity="0.0" d="m721.0 663.0l141.0 0l0 102.0l-141.0 0z" fill-rule="evenodd" /><path id="overlay33Line" opacity="0.0" stroke="#0000ff" stroke-width="3.0" stroke-linejoin="round" stroke-linecap="butt" d="m721.0 663.0l141.0 0l0 102.0l-141.0 0z" fill-rule="evenodd" /><path id="overlay34Box" fill="#ffffff" fill-opacity="0.0" d="m785.0 725.0l60.0 0l0 60.0l-60.0 0z" fill-rule="evenodd" /><path id="overlay34Line" opacity="0.0" stroke="#0000ff" stroke-width="3.0" stroke-linejoin="round" stroke-linecap="butt" d="m785.0 725.0l60.0 0l0 60.0l-60.0 0z" fill-rule="evenodd" /><path id="overlay35Box" fill="#ffffff" fill-opacity="0.0" d="m1099.0 431.0l63.0 0l0 163.0l-63.0 0z" fill-rule="evenodd" /><path id="overlay35Line" opacity="0.0" stroke="#0000ff" stroke-width="3.0" stroke-linejoin="round" stroke-linecap="butt" d="m1099.0 431.0l63.0 0l0 163.0l-63.0 0z" fill-rule="evenodd" /><path id="overlay36Box" fill="#ffffff" fill-opacity="0.0" d="m973.0 595.0l166.0 0l0 68.0l-166.0 0z" fill-rule="evenodd" /><path id="overlay36Line" opacity="0.0" stroke="#0000ff" stroke-width="3.0" stroke-linejoin="round" stroke-linecap="butt" d="m973.0 595.0l166.0 0l0 68.0l-166.0 0z" fill-rule="evenodd" /><path id="overlay37Box" fill="#ffffff" fill-opacity="0.0" d="m973.0 663.0l59.0 0l0 98.0l-59.0 0z" fill-rule="evenodd" /><path id="overlay37Line" opacity="0.0" stroke="#0000ff" stroke-width="3.0" stroke-linejoin="round" stroke-linecap="butt" d="m973.0 663.0l59.0 0l0 98.0l-59.0 0z" fill-rule="evenodd" /><path id="overlay38Box" fill="#ffffff" fill-opacity="0.0" d="m853.0 710.0l120.0 0l0 38.0l-120.0 0z" fill-rule="evenodd" /><path id="overlay38Line" opacity="0.0" stroke="#0000ff" stroke-width="3.0" stroke-linejoin="round" stroke-linecap="butt" d="m853.0 710.0l120.0 0l0 38.0l-120.0 0z" fill-rule="evenodd" /><path id="overlay39Box" fill="#ffffff" fill-opacity="0.0" d="m451.0 725.0l72.0 0l0 92.0l-72.0 0z" fill-rule="evenodd" /><path id="overlay39Line" opacity="0.0" stroke="#0000ff" stroke-width="3.0" stroke-linejoin="round" stroke-linecap="butt" d="m451.0 725.0l72.0 0l0 92.0l-72.0 0z" fill-rule="evenodd" /><path id="overlay40Box" fill="#ffffff" fill-opacity="0.0" d="m446.0 817.0l90.0 0l0 77.0l-90.0 0z" fill-rule="evenodd" /><path id="overlay40Line" opacity="0.0" stroke="#0000ff" stroke-width="3.0" stroke-linejoin="round" stroke-linecap="butt" d="m446.0 817.0l90.0 0l0 77.0l-90.0 0z" fill-rule="evenodd" /><path id="overlay41Box" fill="#ffffff" fill-opacity="0.0" d="m462.0 824.0l37.0 0l0 37.0l-37.0 0z" fill-rule="evenodd" /><path id="overlay41Line" opacity="0.0" stroke="#0000ff" stroke-width="3.0" stroke-linejoin="round" stroke-linecap="butt" d="m462.0 824.0l37.0 0l0 37.0l-37.0 0z" fill-rule="evenodd" /><path id="overlay42Box" fill="#ffffff" fill-opacity="0.0" d="m1127.0 230.5l35.0 0l0 35.0l-35.0 0z" fill-rule="evenodd" /><path id="overlay42Line" opacity="0.0" stroke="#0000ff" stroke-width="3.0" stroke-linejoin="round" stroke-linecap="butt" d="m1127.0 230.5l35.0 0l0 35.0l-35.0 0z" fill-rule="evenodd" /><path id="overlay43Box" fill="#ffffff" fill-opacity="0.0" d="m712.0 765.0l66.0 0l0 109.0l-66.0 0z" fill-rule="evenodd" /><path id="overlay43Line" opacity="0.0" stroke="#0000ff" stroke-width="3.0" stroke-linejoin="round" stroke-linecap="butt" d="m712.0 765.0l66.0 0l0 109.0l-66.0 0z" fill-rule="evenodd" /><path id="overlay44Box" fill="#ffffff" fill-opacity="0.0" d="m536.0 817.0l176.0 0l0 57.0l-176.0 0z" fill-rule="evenodd" /><path id="overlay44Line" opacity="0.0" stroke="#0000ff" stroke-width="3.0" stroke-linejoin="round" stroke-linecap="butt" d="m536.0 817.0l176.0 0l0 57.0l-176.0 0z" fill-rule="evenodd" /><path id="overlay45Box" fill="#ffffff" fill-opacity="0.0" d="m597.0 825.0l78.0 0l0 62.0l-78.0 0z" fill-rule="evenodd" /><path id="overlay45Line" opacity="0.0" stroke="#0000ff" stroke-width="3.0" stroke-linejoin="round" stroke-linecap="butt" d="m597.0 825.0l78.0 0l0 62.0l-78.0 0z" fill-rule="evenodd" /><path id="overlay46Box" fill="#ffffff" fill-opacity="0.0" d="m397.0 441.0l112.0 0l0 91.0l-112.0 0z" fill-rule="evenodd" /><path id="overlay46Line" opacity="0.0" stroke="#0000ff" stroke-width="3.0" stroke-linejoin="round" stroke-linecap="butt" d="m397.0 441.0l112.0 0l0 91.0l-112.0 0z" fill-rule="evenodd" /><path id="overlay47Box" fill="#ffffff" fill-opacity="0.0" d="m252.0 466.0l42.0 0l0 55.0l-42.0 0z" fill-rule="evenodd" /><path id="overlay47Line" opacity="0.0" stroke="#0000ff" stroke-width="3.0" stroke-linejoin="round" stroke-linecap="butt" d="m252.0 466.0l42.0 0l0 55.0l-42.0 0z" fill-rule="evenodd" /><path id="overlay48Box" fill="#ffffff" fill-opacity="0.0" d="m252.0 425.0l43.0 0l0 48.0l-43.0 0z" fill-rule="evenodd" /><path id="overlay48Line" opacity="0.0" stroke="#0000ff" stroke-width="3.0" stroke-linejoin="round" stroke-linecap="butt" d="m252.0 425.0l43.0 0l0 48.0l-43.0 0z" fill-rule="evenodd" /><path id="overlay49Box" fill="#ffffff" fill-opacity="0.0" d="m226.0 380.0l126.0 0l0 45.0l-126.0 0z" fill-rule="evenodd" /><path id="overlay49Line" opacity="0.0" stroke="#0000ff" stroke-width="3.0" stroke-linejoin="round" stroke-linecap="butt" d="m226.0 380.0l126.0 0l0 45.0l-126.0 0z" fill-rule="evenodd" /><path id="overlay50Box" fill="#ffffff" fill-opacity="0.0" d="m814.0 132.5l93.0 0l0 93.0l-93.0 0z" fill-rule="evenodd" /><path id="overlay50Line" opacity="0.0" stroke="#0000ff" stroke-width="3.0" stroke-linejoin="round" stroke-linecap="butt" d="m814.0 132.5l93.0 0l0 93.0l-93.0 0z" fill-rule="evenodd" /></g></svg>